<?xml version="1.0" encoding="iso-8859-1"?>
<!-- Generator: Adobe Illustrator 19.0.0, SVG Export Plug-In . SVG Version: 6.00 Build 0)  -->
<svg version="1.1" id="Capa_1" xmlns="http://www.w3.org/2000/svg" xmlns:xlink="http://www.w3.org/1999/xlink" x="0px" y="0px"
	 viewBox="0 0 489.4 489.4" style="enable-background:new 0 0 489.4 489.4;" xml:space="preserve">
<g>
	<path d="M354.1,179.4c0-14.2,11.5-25.7,25.7-25.7s25.7,11.5,25.7,25.7s-11.5,25.7-25.7,25.7S354.1,193.6,354.1,179.4z M109.6,205.1
		c14.2,0,25.7-11.5,25.7-25.7s-11.5-25.7-25.7-25.7s-25.7,11.5-25.7,25.7C83.8,193.6,95.4,205.1,109.6,205.1z M0,288.5V70.3
		c0-23.4,19-42.4,42.4-42.4h404.5c23.4,0,42.4,19,42.4,42.4v218.2c0,23.4-19,42.4-42.4,42.4H42.4C19.1,330.9,0,311.9,0,288.5z
		 M36.2,244.5c2.4-0.4,5-0.7,7.5-0.7c23.7,0,42.9,19.2,42.9,42.9c0,2.7-0.3,5.3-0.7,7.9h314c-0.2-1.7-0.3-3.5-0.3-5.3
		c0-23.7,19.2-42.9,42.9-42.9c3.7,0,7.2,0.5,10.6,1.3V116.2c-3.4,0.9-6.9,1.3-10.6,1.3c-23.7,0-42.9-19.2-42.9-42.9
		c0-3.6,0.5-7.1,1.3-10.5h-315c0.5,2.6,0.7,5.2,0.7,7.9c0,23.7-19.2,42.9-42.9,42.9c-2.6,0-5.1-0.2-7.5-0.7
		C36.2,114.2,36.2,244.5,36.2,244.5z M471.3,359.6H18.8c-10,0-18.1,8.1-18.1,18.1s8.1,18.1,18.1,18.1h452.5c10,0,18.1-8.1,18.1-18.1
		S481.3,359.6,471.3,359.6z M471.3,425.3H18.8c-10,0-18.1,8.1-18.1,18.1s8.1,18.1,18.1,18.1h452.5c10,0,18.1-8.1,18.1-18.1
		S481.3,425.3,471.3,425.3z M151.8,179.4c0-51.2,41.7-92.9,92.9-92.9s92.9,41.7,92.9,92.9s-41.7,92.9-92.9,92.9
		S151.8,230.6,151.8,179.4z M197.2,182.5l17.4,17.5l18,18.1l18.1-18l41.5-41.3l-18-18.1L232.7,182l-17.4-17.5L197.2,182.5z"/>
</g>
<g>
</g>
<g>
</g>
<g>
</g>
<g>
</g>
<g>
</g>
<g>
</g>
<g>
</g>
<g>
</g>
<g>
</g>
<g>
</g>
<g>
</g>
<g>
</g>
<g>
</g>
<g>
</g>
<g>
</g>
</svg>
